<?xml version="1.0" encoding="us-ascii" standalone="no"?><svg xmlns="http://www.w3.org/2000/svg" xmlns:xlink="http://www.w3.org/1999/xlink" contentStyleType="text/css" height="805px" preserveAspectRatio="none" style="width:630px;height:805px;background:#FFFFFF;" version="1.1" viewBox="0 0 630 805" width="630px" zoomAndPan="magnify"><defs/><g><!--cluster Client--><g id="cluster_Client"><path d="M8.5,6.602 L49.5,6.602 A3.75,3.75 0 0 1 52,9.102 L59,31.6699 L356.5,31.6699 A2.5,2.5 0 0 1 359,34.1699 L359,107.102 A2.5,2.5 0 0 1 356.5,109.602 L8.5,109.602 A2.5,2.5 0 0 1 6,107.102 L6,9.102 A2.5,2.5 0 0 1 8.5,6.602 " fill="none" style="stroke:#000000;stroke-width:1.5;"/><line style="stroke:#000000;stroke-width:1.5;" x1="6" x2="59" y1="31.6699" y2="31.6699"/><text fill="#000000" font-family="sans-serif" font-size="14" font-weight="bold" lengthAdjust="spacing" textLength="40" x="10" y="23.5679">Client</text></g><!--cluster Server--><g id="cluster_Server"><polygon fill="none" points="209,143.602,219,133.602,367,133.602,367,528.602,357,538.602,209,538.602,209,143.602" style="stroke:#181818;stroke-width:1.0;"/><line style="stroke:#181818;stroke-width:1.0;" x1="357" x2="367" y1="143.602" y2="133.602"/><line style="stroke:#181818;stroke-width:1.0;" x1="209" x2="357" y1="143.602" y2="143.602"/><line style="stroke:#181818;stroke-width:1.0;" x1="357" x2="357" y1="143.602" y2="538.602"/><text fill="#000000" font-family="sans-serif" font-size="14" font-weight="bold" lengthAdjust="spacing" textLength="44" x="262" y="161.5679">Server</text></g><g id="cluster_##12"><path d="M39.7392,278.173 C43.908,272.4028 48.0293,271.7778 52.0092,278.3607 C54.7041,272.0073 59.7735,272.1797 63.2499,277.6155 C66.3454,271.4629 71.03,271.4898 74.337,277.4215 C78.2225,270.8586 81.9748,270.6777 86.7219,276.5644 C88.7785,270.9254 93.4903,269.9652 96.978,275.2167 C99.5942,269.5156 104.5554,268.7624 108.3481,273.9929 C112.6244,268.32 118.1316,270.118 120.7099,275.8357 C124.1502,271.252 129.4268,270.9597 131.8887,276.8773 C135.3455,271.622 140.3145,271.4358 143.6296,277.0306 C146.4881,270.5664 152.3382,270.0649 155.9715,276.2762 C160.2472,271.7483 164.8966,273.1671 166.9216,278.7207 C170.6998,273.817 174.626,273.6402 178.028,279.123 C183.4589,281.5733 184.966,284.7538 181.126,289.8752 C187.8576,291.5262 188.4358,294.9682 185.0818,300.4073 C190.7683,302.479 191.397,307.1504 187.4527,311.3154 C192.5987,315.892 191.0072,321.1909 184.4901,322.7441 C187.6088,327.1608 187.4004,330.7027 181.3153,331.9429 C186.8436,336.9576 186.2157,341.4228 179.0041,343.9943 C175.4289,350.2818 170.7436,349.8776 166.9784,344.185 C164.5453,350.1957 158.6762,350.3533 154.843,345.7922 C151.6631,350.8751 146.7559,349.8681 144.4012,344.9322 C142.3211,350.8187 136.6935,350.7113 133.1875,346.5188 C129.6773,353.0481 125.1534,353.7159 119.9781,348.3713 C116.4439,353.86 112.3331,354.0916 108.6968,348.4752 C104.1798,352.6993 100.4525,352.7963 97.6276,346.6663 C93.2809,352.2793 88.4616,351.2835 85.1623,345.5188 C82.6591,350.6968 77.8079,350.5931 75.1219,345.7011 C70.4962,350.9631 66.0795,351.7285 62.4046,344.7161 C59.0673,348.9788 55.0845,349.6769 52.4484,344.0127 C48.3568,350.4222 44.1992,350.1493 40.468,343.6774 C34.5756,340.9003 32.9777,336.9035 38.3972,332.1026 C32.5042,329.9602 31.9368,325.0628 36.5268,321.133 C31.3253,319.2355 30.3893,316.0638 34.6882,312.209 C29.2295,307.9046 29.876,303.2287 36.2972,300.5659 C31.0739,296.8025 32.0812,293.3313 36.9463,290.1997 C32.6788,285.4886 33.6923,280.4888 39.7392,278.173 " fill="none" style="stroke:#181818;stroke-width:1.0;"/></g><!--cluster MongoDB--><g id="cluster_MongoDB"><path d="M391,384.602 C391,374.602 502,374.602 502,374.602 C502,374.602 613,374.602 613,384.602 L613,552.602 C613,562.602 502,562.602 502,562.602 C502,562.602 391,562.602 391,552.602 L391,384.602 " fill="none" style="stroke:#181818;stroke-width:1.0;"/><path d="M391,384.602 C391,394.602 502,394.602 502,394.602 C502,394.602 613,394.602 613,384.602 " fill="none" style="stroke:#181818;stroke-width:1.0;"/><text fill="#000000" font-family="sans-serif" font-size="14" font-weight="bold" lengthAdjust="spacing" textLength="68" x="468" y="411.5679">MongoDB</text></g><!--cluster Data Storage--><g id="cluster_Data Storage"><path d="M417.5,435.602 L508.5,435.602 A3.75,3.75 0 0 1 511,438.102 L518,460.6699 L586.5,460.6699 A2.5,2.5 0 0 1 589,463.1699 L589,536.102 A2.5,2.5 0 0 1 586.5,538.602 L417.5,538.602 A2.5,2.5 0 0 1 415,536.102 L415,438.102 A2.5,2.5 0 0 1 417.5,435.602 " fill="none" style="stroke:#000000;stroke-width:1.5;"/><line style="stroke:#000000;stroke-width:1.5;" x1="415" x2="518" y1="460.6699" y2="460.6699"/><text fill="#000000" font-family="sans-serif" font-size="14" font-weight="bold" lengthAdjust="spacing" textLength="90" x="419" y="452.5679">Data Storage</text></g><!--cluster Dashboard(Angular)--><g id="cluster_Dashboard(Angular)"><path d="M189.5,586.602 L330.5,586.602 A3.75,3.75 0 0 1 333,589.102 L340,611.6699 L380.5,611.6699 A2.5,2.5 0 0 1 383,614.1699 L383,796.102 A2.5,2.5 0 0 1 380.5,798.602 L189.5,798.602 A2.5,2.5 0 0 1 187,796.102 L187,589.102 A2.5,2.5 0 0 1 189.5,586.602 " fill="none" style="stroke:#000000;stroke-width:1.5;"/><line style="stroke:#000000;stroke-width:1.5;" x1="187" x2="340" y1="611.6699" y2="611.6699"/><text fill="#000000" font-family="sans-serif" font-size="14" font-weight="bold" lengthAdjust="spacing" textLength="140" x="191" y="603.5679">Dashboard(Angular)</text></g><!--entity Measure CPU Usage--><g id="elem_Measure CPU Usage"><rect fill="#F1F1F1" height="49.0679" rx="2.5" ry="2.5" style="stroke:#181818;stroke-width:0.5;" width="176" x="22" y="44.602"/><rect fill="#F1F1F1" height="10" style="stroke:#181818;stroke-width:0.5;" width="15" x="178" y="49.602"/><rect fill="#F1F1F1" height="2" style="stroke:#181818;stroke-width:0.5;" width="4" x="176" y="51.602"/><rect fill="#F1F1F1" height="2" style="stroke:#181818;stroke-width:0.5;" width="4" x="176" y="55.602"/><text fill="#000000" font-family="sans-serif" font-size="14" lengthAdjust="spacing" textLength="136" x="37" y="79.5679">Measure CPU Usage</text></g><!--entity Send Data--><g id="elem_Send Data"><rect fill="#F1F1F1" height="49.0679" rx="2.5" ry="2.5" style="stroke:#181818;stroke-width:0.5;" width="109" x="233.5" y="44.602"/><rect fill="#F1F1F1" height="10" style="stroke:#181818;stroke-width:0.5;" width="15" x="322.5" y="49.602"/><rect fill="#F1F1F1" height="2" style="stroke:#181818;stroke-width:0.5;" width="4" x="320.5" y="51.602"/><rect fill="#F1F1F1" height="2" style="stroke:#181818;stroke-width:0.5;" width="4" x="320.5" y="55.602"/><text fill="#000000" font-family="sans-serif" font-size="14" lengthAdjust="spacing" textLength="69" x="248.5" y="79.5679">Send Data</text></g><!--entity Receive Data--><g id="elem_Receive Data"><rect fill="#F1F1F1" height="49.0679" rx="2.5" ry="2.5" style="stroke:#181818;stroke-width:0.5;" width="126" x="225" y="176.602"/><rect fill="#F1F1F1" height="10" style="stroke:#181818;stroke-width:0.5;" width="15" x="331" y="181.602"/><rect fill="#F1F1F1" height="2" style="stroke:#181818;stroke-width:0.5;" width="4" x="329" y="183.602"/><rect fill="#F1F1F1" height="2" style="stroke:#181818;stroke-width:0.5;" width="4" x="329" y="187.602"/><text fill="#000000" font-family="sans-serif" font-size="14" lengthAdjust="spacing" textLength="86" x="240" y="211.5679">Receive Data</text></g><!--entity Process Data--><g id="elem_Process Data"><rect fill="#F1F1F1" height="49.0679" rx="2.5" ry="2.5" style="stroke:#181818;stroke-width:0.5;" width="126" x="225" y="285.602"/><rect fill="#F1F1F1" height="10" style="stroke:#181818;stroke-width:0.5;" width="15" x="331" y="290.602"/><rect fill="#F1F1F1" height="2" style="stroke:#181818;stroke-width:0.5;" width="4" x="329" y="292.602"/><rect fill="#F1F1F1" height="2" style="stroke:#181818;stroke-width:0.5;" width="4" x="329" y="296.602"/><text fill="#000000" font-family="sans-serif" font-size="14" lengthAdjust="spacing" textLength="86" x="240" y="320.5679">Process Data</text></g><!--entity Query Data--><g id="elem_Query Data"><rect fill="#F1F1F1" height="49.0679" rx="2.5" ry="2.5" style="stroke:#181818;stroke-width:0.5;" width="116" x="227" y="473.602"/><rect fill="#F1F1F1" height="10" style="stroke:#181818;stroke-width:0.5;" width="15" x="323" y="478.602"/><rect fill="#F1F1F1" height="2" style="stroke:#181818;stroke-width:0.5;" width="4" x="321" y="480.602"/><rect fill="#F1F1F1" height="2" style="stroke:#181818;stroke-width:0.5;" width="4" x="321" y="484.602"/><text fill="#000000" font-family="sans-serif" font-size="14" lengthAdjust="spacing" textLength="76" x="242" y="508.5679">Query Data</text></g><!--entity Redis Cache--><g id="elem_Redis Cache"><rect fill="#F1F1F1" height="49.0679" rx="2.5" ry="2.5" style="stroke:#181818;stroke-width:0.5;" width="122" x="47" y="285.602"/><rect fill="#F1F1F1" height="10" style="stroke:#181818;stroke-width:0.5;" width="15" x="149" y="290.602"/><rect fill="#F1F1F1" height="2" style="stroke:#181818;stroke-width:0.5;" width="4" x="147" y="292.602"/><rect fill="#F1F1F1" height="2" style="stroke:#181818;stroke-width:0.5;" width="4" x="147" y="296.602"/><text fill="#000000" font-family="sans-serif" font-size="14" lengthAdjust="spacing" textLength="82" x="62" y="320.5679">Redis Cache</text></g><!--entity Store CPU Data--><g id="elem_Store CPU Data"><rect fill="#F1F1F1" height="49.0679" rx="2.5" ry="2.5" style="stroke:#181818;stroke-width:0.5;" width="141" x="431.5" y="473.602"/><rect fill="#F1F1F1" height="10" style="stroke:#181818;stroke-width:0.5;" width="15" x="552.5" y="478.602"/><rect fill="#F1F1F1" height="2" style="stroke:#181818;stroke-width:0.5;" width="4" x="550.5" y="480.602"/><rect fill="#F1F1F1" height="2" style="stroke:#181818;stroke-width:0.5;" width="4" x="550.5" y="484.602"/><text fill="#000000" font-family="sans-serif" font-size="14" lengthAdjust="spacing" textLength="101" x="446.5" y="508.5679">Store CPU Data</text></g><!--entity Fetch Display Data--><g id="elem_Fetch Display Data"><rect fill="#F1F1F1" height="49.0679" rx="2.5" ry="2.5" style="stroke:#181818;stroke-width:0.5;" width="164" x="203" y="624.602"/><rect fill="#F1F1F1" height="10" style="stroke:#181818;stroke-width:0.5;" width="15" x="347" y="629.602"/><rect fill="#F1F1F1" height="2" style="stroke:#181818;stroke-width:0.5;" width="4" x="345" y="631.602"/><rect fill="#F1F1F1" height="2" style="stroke:#181818;stroke-width:0.5;" width="4" x="345" y="635.602"/><text fill="#000000" font-family="sans-serif" font-size="14" lengthAdjust="spacing" textLength="124" x="218" y="659.5679">Fetch Display Data</text></g><!--entity Display Data--><g id="elem_Display Data"><rect fill="#F1F1F1" height="49.0679" rx="2.5" ry="2.5" style="stroke:#181818;stroke-width:0.5;" width="124" x="223" y="733.602"/><rect fill="#F1F1F1" height="10" style="stroke:#181818;stroke-width:0.5;" width="15" x="327" y="738.602"/><rect fill="#F1F1F1" height="2" style="stroke:#181818;stroke-width:0.5;" width="4" x="325" y="740.602"/><rect fill="#F1F1F1" height="2" style="stroke:#181818;stroke-width:0.5;" width="4" x="325" y="744.602"/><text fill="#000000" font-family="sans-serif" font-size="14" lengthAdjust="spacing" textLength="84" x="238" y="768.5679">Display Data</text></g><!--link Measure CPU Usage to Send Data--><g id="link_Measure CPU Usage_Send Data"><path d="M198.3,69.102 C209.98,69.102 215.66,69.102 227.34,69.102 " fill="none" id="Measure CPU Usage-to-Send Data" style="stroke:#181818;stroke-width:1.0;"/><polygon fill="#181818" points="233.34,69.102,224.34,65.102,228.34,69.102,224.34,73.102,233.34,69.102" style="stroke:#181818;stroke-width:1.0;"/></g><!--link Receive Data to Process Data--><g id="link_Receive Data_Process Data"><path d="M288,225.852 C288,243.582 288,261.702 288,279.422 " fill="none" id="Receive Data-to-Process Data" style="stroke:#181818;stroke-width:1.0;"/><polygon fill="#181818" points="288,285.422,292,276.422,288,280.422,284,276.422,288,285.422" style="stroke:#181818;stroke-width:1.0;"/></g><!--link Process Data to Query Data--><g id="link_Process Data_Query Data"><path d="M287.62,334.662 C287.04,370.342 286.0574,431.7028 285.4774,467.4428 " fill="none" id="Process Data-to-Query Data" style="stroke:#181818;stroke-width:1.0;"/><polygon fill="#181818" points="285.38,473.442,289.5255,464.5081,285.4611,468.4426,281.5266,464.3783,285.38,473.442" style="stroke:#181818;stroke-width:1.0;"/></g><!--link Send Data to Receive Data--><g id="link_Send Data_Receive Data"><path d="M288,93.642 C288,117.062 288,146.792 288,170.292 " fill="none" id="Send Data-to-Receive Data" style="stroke:#181818;stroke-width:1.0;"/><polygon fill="#181818" points="288,176.292,292,167.292,288,171.292,284,167.292,288,176.292" style="stroke:#181818;stroke-width:1.0;"/></g><!--link Process Data to Redis Cache--><g id="link_Process Data_Redis Cache"><path d="M224.87,310.102 C206.31,310.102 193.74,310.102 175.17,310.102 " fill="none" id="Process Data-to-Redis Cache" style="stroke:#181818;stroke-width:1.0;"/><polygon fill="#181818" points="169.17,310.102,178.17,314.102,174.17,310.102,178.17,306.102,169.17,310.102" style="stroke:#181818;stroke-width:1.0;"/></g><!--link Redis Cache to Query Data--><g id="link_Redis Cache_Query Data"><path d="M130.42,334.662 C164.37,370.342 224.3439,433.3554 258.3539,469.0954 " fill="none" id="Redis Cache-to-Query Data" style="stroke:#181818;stroke-width:1.0;"/><polygon fill="#181818" points="262.49,473.442,259.1835,464.1648,259.0432,469.8199,253.3881,469.6796,262.49,473.442" style="stroke:#181818;stroke-width:1.0;"/></g><!--link Process Data to Store CPU Data--><g id="link_Process Data_Store CPU Data"><path d="M324.27,334.822 C338,344.262 353.56,355.502 367,366.602 C408.97,401.272 449.4762,441.9123 475.4562,468.9923 " fill="none" id="Process Data-to-Store CPU Data" style="stroke:#181818;stroke-width:1.0;"/><polygon fill="#181818" points="479.61,473.322,476.2658,464.0583,476.1485,469.7139,470.4929,469.5967,479.61,473.322" style="stroke:#181818;stroke-width:1.0;"/></g><!--reverse link Fetch Display Data to Query Data--><g id="link_Fetch Display Data_Query Data"><path d="M274.4514,618.1767 C270.3214,590.2767 271.22,550.452 275.39,522.712 " fill="none" id="Fetch Display Data-backto-Query Data" style="stroke:#181818;stroke-width:1.0;"/><polygon fill="#181818" points="275.33,624.112,277.969,614.6233,274.5978,619.1659,270.0552,615.7947,275.33,624.112" style="stroke:#181818;stroke-width:1.0;"/></g><!--link Query Data to Fetch Display Data--><g id="link_Query Data_Fetch Display Data"><path d="M295.18,522.712 C299.59,550.452 300.5385,590.2843 296.1685,618.1843 " fill="none" id="Query Data-to-Fetch Display Data" style="stroke:#181818;stroke-width:1.0;"/><polygon fill="#181818" points="295.24,624.112,300.5845,615.8394,296.0137,619.1722,292.6809,614.6014,295.24,624.112" style="stroke:#181818;stroke-width:1.0;"/></g><!--link Fetch Display Data to Display Data--><g id="link_Fetch Display Data_Display Data"><path d="M285,673.852 C285,691.582 285,709.702 285,727.422 " fill="none" id="Fetch Display Data-to-Display Data" style="stroke:#181818;stroke-width:1.0;"/><polygon fill="#181818" points="285,733.422,289,724.422,285,728.422,281,724.422,285,733.422" style="stroke:#181818;stroke-width:1.0;"/></g><!--SRC=[RP71RiCW44JlVCNAf_R07rILMbkzHKfgvHJbi86jZOh00fmeglBl1MEh8VKHziti30melh4Zg6gjo8GAVXZ0OKFeHqTGR_Umzt5-1EvKrmV-2eUMZ8G60nxPZJ5ZPLItvCxaPlKd2L9doWnmQIycwRRE2l9-biB31V34x4PorpzpeUqe5rEfFDGeUff6CZ8dz77tnfhEDkzv-PVLaXnKoGBQO5qCdoVH8vrpgIN3BLdTDSefYW9iBMUHfZZzxx6cVqp2XkKV6lJzoQAJJs-c6pMwv_bLFoY87Xhb1uspDRnmNkwAN45CzUw0l7t5YgtwJtJ9_G80]--></g></svg>